# xmcd
#
# Track frame offsets:
#	182
#	9787
#	21330
#	41710
#	50622
#	62652
#	77995
#	98545
#	110627
#	131995
#	145890
#	160027
#	180252
#
# Disc length: 2689 seconds
#
# Revision: 0
# Processed by: cddbd v1.5.2PL0 Copyright (c) Steve Scherf et al.
# Submitted via: EasyCDDAExtractor 12.1.0.1
#
DISCID=a60a7f0d
DTITLE=B-Thong - Skinned
DYEAR=1900
DGENRE=
TTITLE0=S.F.M.
TTITLE1=Fatal Accusation
TTITLE2=Godslave
TTITLE3=Schizophrenic Pavement
TTITLE4=No More
TTITLE5=Violent Blows
TTITLE6=Floodgate
TTITLE7=Stained
TTITLE8=My Opinion
TTITLE9=Power Ranger
TTITLE10=Taking You Home
TTITLE11=Under My Nails
TTITLE12=Justice Seeker
EXTD=
EXTT0=
EXTT1=
EXTT2=
EXTT3=
EXTT4=
EXTT5=
EXTT6=
EXTT7=
EXTT8=
EXTT9=
EXTT10=
EXTT11=
EXTT12=
PLAYORDER=
